<mxfile host="Electron" agent="Mozilla/5.0 (Windows NT 10.0; Win64; x64) AppleWebKit/537.36 (KHTML, like Gecko) draw.io/26.2.15 Chrome/134.0.6998.205 Electron/35.2.1 Safari/537.36" version="26.2.15">
  <diagram name="Page-1" id="-4VBUGrMLWXE1R_eSh8Z">
    <mxGraphModel dx="2505" dy="999" grid="1" gridSize="10" guides="1" tooltips="1" connect="1" arrows="1" fold="1" page="1" pageScale="1" pageWidth="827" pageHeight="1169" math="0" shadow="0">
      <root>
        <mxCell id="0" />
        <mxCell id="1" parent="0" />
        <mxCell id="e5gvV9gEUc8Vd4Qhu_8A-9" value="" style="edgeStyle=orthogonalEdgeStyle;rounded=0;orthogonalLoop=1;jettySize=auto;html=1;" parent="1" source="e5gvV9gEUc8Vd4Qhu_8A-7" target="e5gvV9gEUc8Vd4Qhu_8A-8" edge="1">
          <mxGeometry relative="1" as="geometry" />
        </mxCell>
        <mxCell id="e5gvV9gEUc8Vd4Qhu_8A-7" value="Read of settings" style="rounded=1;whiteSpace=wrap;html=1;" parent="1" vertex="1">
          <mxGeometry x="353" y="60" width="120" height="60" as="geometry" />
        </mxCell>
        <mxCell id="R-yscP4EIN9MWtnitsbt-1" style="edgeStyle=orthogonalEdgeStyle;rounded=0;orthogonalLoop=1;jettySize=auto;html=1;entryX=0.5;entryY=0;entryDx=0;entryDy=0;" parent="1" source="e5gvV9gEUc8Vd4Qhu_8A-8" target="e5gvV9gEUc8Vd4Qhu_8A-17" edge="1">
          <mxGeometry relative="1" as="geometry" />
        </mxCell>
        <mxCell id="e5gvV9gEUc8Vd4Qhu_8A-8" value="Read of backup strategies" style="whiteSpace=wrap;html=1;rounded=1;" parent="1" vertex="1">
          <mxGeometry x="353" y="160" width="120" height="60" as="geometry" />
        </mxCell>
        <mxCell id="R-yscP4EIN9MWtnitsbt-4" style="edgeStyle=orthogonalEdgeStyle;rounded=0;orthogonalLoop=1;jettySize=auto;html=1;entryX=0.5;entryY=0;entryDx=0;entryDy=0;" parent="1" source="e5gvV9gEUc8Vd4Qhu_8A-17" target="R-yscP4EIN9MWtnitsbt-2" edge="1">
          <mxGeometry relative="1" as="geometry" />
        </mxCell>
        <mxCell id="e5gvV9gEUc8Vd4Qhu_8A-17" value="View / Display strategies" style="whiteSpace=wrap;html=1;rounded=1;" parent="1" vertex="1">
          <mxGeometry x="353" y="280" width="120" height="60" as="geometry" />
        </mxCell>
        <mxCell id="e5gvV9gEUc8Vd4Qhu_8A-26" value="Check backups integrity" style="whiteSpace=wrap;html=1;rounded=1;" parent="1" vertex="1">
          <mxGeometry x="570" y="600" width="120" height="40" as="geometry" />
        </mxCell>
        <mxCell id="euGW15pd2-e-l5eLdQlk-2" value="" style="edgeStyle=orthogonalEdgeStyle;rounded=0;orthogonalLoop=1;jettySize=auto;html=1;" edge="1" parent="1" source="e5gvV9gEUc8Vd4Qhu_8A-30" target="euGW15pd2-e-l5eLdQlk-1">
          <mxGeometry relative="1" as="geometry" />
        </mxCell>
        <mxCell id="e5gvV9gEUc8Vd4Qhu_8A-30" value="New Backup" style="whiteSpace=wrap;html=1;rounded=1;" parent="1" vertex="1">
          <mxGeometry x="173" y="590" width="120" height="60" as="geometry" />
        </mxCell>
        <mxCell id="e5gvV9gEUc8Vd4Qhu_8A-37" value="Controller" style="text;html=1;align=center;verticalAlign=middle;whiteSpace=wrap;rounded=0;fillColor=#e1d5e7;strokeColor=#9673a6;" parent="1" vertex="1">
          <mxGeometry x="640" y="77.5" width="60" height="25" as="geometry" />
        </mxCell>
        <mxCell id="e5gvV9gEUc8Vd4Qhu_8A-39" value="Backup Manager" style="text;html=1;align=center;verticalAlign=middle;whiteSpace=wrap;rounded=0;fillColor=#d5e8d4;strokeColor=#82b366;" parent="1" vertex="1">
          <mxGeometry x="510" y="175" width="60" height="30" as="geometry" />
        </mxCell>
        <mxCell id="e5gvV9gEUc8Vd4Qhu_8A-43" value="" style="edgeStyle=orthogonalEdgeStyle;rounded=0;orthogonalLoop=1;jettySize=auto;html=1;" parent="1" source="e5gvV9gEUc8Vd4Qhu_8A-40" target="e5gvV9gEUc8Vd4Qhu_8A-42" edge="1">
          <mxGeometry relative="1" as="geometry" />
        </mxCell>
        <mxCell id="e5gvV9gEUc8Vd4Qhu_8A-40" value="GUI start" style="rounded=1;whiteSpace=wrap;html=1;" parent="1" vertex="1">
          <mxGeometry x="840" y="60" width="120" height="60" as="geometry" />
        </mxCell>
        <mxCell id="e5gvV9gEUc8Vd4Qhu_8A-46" value="" style="edgeStyle=orthogonalEdgeStyle;rounded=0;orthogonalLoop=1;jettySize=auto;html=1;" parent="1" source="e5gvV9gEUc8Vd4Qhu_8A-42" target="e5gvV9gEUc8Vd4Qhu_8A-45" edge="1">
          <mxGeometry relative="1" as="geometry" />
        </mxCell>
        <mxCell id="e5gvV9gEUc8Vd4Qhu_8A-42" value="Window shows up" style="whiteSpace=wrap;html=1;rounded=1;" parent="1" vertex="1">
          <mxGeometry x="840" y="160" width="120" height="60" as="geometry" />
        </mxCell>
        <mxCell id="e5gvV9gEUc8Vd4Qhu_8A-45" value="Status Update" style="whiteSpace=wrap;html=1;rounded=1;" parent="1" vertex="1">
          <mxGeometry x="840" y="270" width="120" height="60" as="geometry" />
        </mxCell>
        <mxCell id="e5gvV9gEUc8Vd4Qhu_8A-48" value="View" style="text;html=1;align=center;verticalAlign=middle;whiteSpace=wrap;rounded=0;fillColor=#dae8fc;strokeColor=#6c8ebf;" parent="1" vertex="1">
          <mxGeometry x="510" y="300" width="60" height="30" as="geometry" />
        </mxCell>
        <mxCell id="e5gvV9gEUc8Vd4Qhu_8A-50" value="Integrity Utils" style="text;html=1;align=center;verticalAlign=middle;whiteSpace=wrap;rounded=0;fillColor=#d5e8d4;strokeColor=#82b366;" parent="1" vertex="1">
          <mxGeometry x="787" y="605" width="90" height="30" as="geometry" />
        </mxCell>
        <mxCell id="e5gvV9gEUc8Vd4Qhu_8A-51" value="Backup Manager" style="text;html=1;align=center;verticalAlign=middle;whiteSpace=wrap;rounded=0;fillColor=#d5e8d4;strokeColor=#82b366;" parent="1" vertex="1">
          <mxGeometry x="330" y="605" width="60" height="30" as="geometry" />
        </mxCell>
        <mxCell id="ZNCUt6Yhe3h7UFVzXYcL-1" value="Controller" style="text;html=1;align=center;verticalAlign=middle;whiteSpace=wrap;rounded=0;fillColor=#e1d5e7;strokeColor=#9673a6;" parent="1" vertex="1">
          <mxGeometry x="750" y="177.5" width="60" height="25" as="geometry" />
        </mxCell>
        <mxCell id="ZNCUt6Yhe3h7UFVzXYcL-3" value="Thread 1" style="text;html=1;align=center;verticalAlign=middle;whiteSpace=wrap;rounded=0;" parent="1" vertex="1">
          <mxGeometry x="384" y="10" width="60" height="30" as="geometry" />
        </mxCell>
        <mxCell id="ZNCUt6Yhe3h7UFVzXYcL-4" value="Thread 2" style="text;html=1;align=center;verticalAlign=middle;whiteSpace=wrap;rounded=0;" parent="1" vertex="1">
          <mxGeometry x="870" y="10" width="60" height="30" as="geometry" />
        </mxCell>
        <mxCell id="R-yscP4EIN9MWtnitsbt-5" style="edgeStyle=orthogonalEdgeStyle;rounded=0;orthogonalLoop=1;jettySize=auto;html=1;entryX=0.5;entryY=0;entryDx=0;entryDy=0;" parent="1" source="R-yscP4EIN9MWtnitsbt-2" target="R-yscP4EIN9MWtnitsbt-8" edge="1">
          <mxGeometry relative="1" as="geometry">
            <mxPoint x="413" y="430" as="targetPoint" />
          </mxGeometry>
        </mxCell>
        <mxCell id="R-yscP4EIN9MWtnitsbt-2" value="User Input&lt;div&gt;Load strategy&lt;/div&gt;" style="ellipse;whiteSpace=wrap;html=1;rounded=1;" parent="1" vertex="1">
          <mxGeometry x="367" y="360" width="93" height="50" as="geometry" />
        </mxCell>
        <mxCell id="R-yscP4EIN9MWtnitsbt-6" value="Controller" style="text;html=1;align=center;verticalAlign=middle;whiteSpace=wrap;rounded=0;fillColor=#e1d5e7;strokeColor=#9673a6;" parent="1" vertex="1">
          <mxGeometry x="510" y="372.5" width="60" height="25" as="geometry" />
        </mxCell>
        <mxCell id="R-yscP4EIN9MWtnitsbt-12" style="edgeStyle=orthogonalEdgeStyle;rounded=0;orthogonalLoop=1;jettySize=auto;html=1;entryX=0.5;entryY=0;entryDx=0;entryDy=0;" parent="1" source="R-yscP4EIN9MWtnitsbt-8" target="e5gvV9gEUc8Vd4Qhu_8A-26" edge="1">
          <mxGeometry relative="1" as="geometry">
            <Array as="points">
              <mxPoint x="414" y="530" />
              <mxPoint x="630" y="530" />
            </Array>
          </mxGeometry>
        </mxCell>
        <mxCell id="R-yscP4EIN9MWtnitsbt-13" style="edgeStyle=orthogonalEdgeStyle;rounded=0;orthogonalLoop=1;jettySize=auto;html=1;entryX=0.5;entryY=0;entryDx=0;entryDy=0;" parent="1" source="R-yscP4EIN9MWtnitsbt-8" target="e5gvV9gEUc8Vd4Qhu_8A-30" edge="1">
          <mxGeometry relative="1" as="geometry">
            <Array as="points">
              <mxPoint x="414" y="530" />
              <mxPoint x="233" y="530" />
            </Array>
          </mxGeometry>
        </mxCell>
        <mxCell id="R-yscP4EIN9MWtnitsbt-8" value="User Input" style="ellipse;whiteSpace=wrap;html=1;rounded=1;" parent="1" vertex="1">
          <mxGeometry x="374" y="470" width="80" height="50" as="geometry" />
        </mxCell>
        <mxCell id="R-yscP4EIN9MWtnitsbt-10" value="Controller" style="text;html=1;align=center;verticalAlign=middle;whiteSpace=wrap;rounded=0;fillColor=#e1d5e7;strokeColor=#9673a6;" parent="1" vertex="1">
          <mxGeometry x="510" y="482.5" width="60" height="25" as="geometry" />
        </mxCell>
        <mxCell id="R-yscP4EIN9MWtnitsbt-11" value="Backup Manager" style="text;html=1;align=center;verticalAlign=middle;whiteSpace=wrap;rounded=0;fillColor=#d5e8d4;strokeColor=#82b366;" parent="1" vertex="1">
          <mxGeometry x="727" y="605" width="60" height="30" as="geometry" />
        </mxCell>
        <mxCell id="euGW15pd2-e-l5eLdQlk-4" value="" style="edgeStyle=orthogonalEdgeStyle;rounded=0;orthogonalLoop=1;jettySize=auto;html=1;" edge="1" parent="1" source="euGW15pd2-e-l5eLdQlk-1" target="euGW15pd2-e-l5eLdQlk-3">
          <mxGeometry relative="1" as="geometry" />
        </mxCell>
        <mxCell id="euGW15pd2-e-l5eLdQlk-1" value="Get CLS" style="whiteSpace=wrap;html=1;rounded=1;" vertex="1" parent="1">
          <mxGeometry x="173" y="700" width="120" height="60" as="geometry" />
        </mxCell>
        <mxCell id="euGW15pd2-e-l5eLdQlk-6" style="edgeStyle=orthogonalEdgeStyle;rounded=0;orthogonalLoop=1;jettySize=auto;html=1;entryX=0.5;entryY=0;entryDx=0;entryDy=0;" edge="1" parent="1" source="euGW15pd2-e-l5eLdQlk-3" target="euGW15pd2-e-l5eLdQlk-5">
          <mxGeometry relative="1" as="geometry" />
        </mxCell>
        <mxCell id="euGW15pd2-e-l5eLdQlk-3" value="Search journal for CLS and load it" style="whiteSpace=wrap;html=1;rounded=1;" vertex="1" parent="1">
          <mxGeometry x="173" y="790" width="120" height="60" as="geometry" />
        </mxCell>
        <mxCell id="euGW15pd2-e-l5eLdQlk-10" style="edgeStyle=orthogonalEdgeStyle;rounded=0;orthogonalLoop=1;jettySize=auto;html=1;entryX=0;entryY=0.5;entryDx=0;entryDy=0;" edge="1" parent="1" source="euGW15pd2-e-l5eLdQlk-5" target="euGW15pd2-e-l5eLdQlk-9">
          <mxGeometry relative="1" as="geometry" />
        </mxCell>
        <mxCell id="euGW15pd2-e-l5eLdQlk-12" style="edgeStyle=orthogonalEdgeStyle;rounded=0;orthogonalLoop=1;jettySize=auto;html=1;entryX=0.5;entryY=0;entryDx=0;entryDy=0;" edge="1" parent="1" source="euGW15pd2-e-l5eLdQlk-5" target="euGW15pd2-e-l5eLdQlk-11">
          <mxGeometry relative="1" as="geometry">
            <Array as="points">
              <mxPoint x="10" y="950" />
            </Array>
          </mxGeometry>
        </mxCell>
        <mxCell id="euGW15pd2-e-l5eLdQlk-5" value="There is a Journal for CLS" style="rhombus;whiteSpace=wrap;html=1;" vertex="1" parent="1">
          <mxGeometry x="139.5" y="900" width="187" height="100" as="geometry" />
        </mxCell>
        <mxCell id="euGW15pd2-e-l5eLdQlk-28" value="" style="edgeStyle=orthogonalEdgeStyle;rounded=0;orthogonalLoop=1;jettySize=auto;html=1;" edge="1" parent="1" source="euGW15pd2-e-l5eLdQlk-9" target="euGW15pd2-e-l5eLdQlk-27">
          <mxGeometry relative="1" as="geometry" />
        </mxCell>
        <mxCell id="euGW15pd2-e-l5eLdQlk-9" value="Search journal for CLS and load it" style="whiteSpace=wrap;html=1;rounded=1;" vertex="1" parent="1">
          <mxGeometry x="414" y="920" width="120" height="60" as="geometry" />
        </mxCell>
        <mxCell id="euGW15pd2-e-l5eLdQlk-16" value="" style="edgeStyle=orthogonalEdgeStyle;rounded=0;orthogonalLoop=1;jettySize=auto;html=1;" edge="1" parent="1" source="euGW15pd2-e-l5eLdQlk-11" target="euGW15pd2-e-l5eLdQlk-15">
          <mxGeometry relative="1" as="geometry">
            <Array as="points">
              <mxPoint x="405" y="1080" />
            </Array>
          </mxGeometry>
        </mxCell>
        <mxCell id="euGW15pd2-e-l5eLdQlk-11" value="Create backup from zero. Scan targets and fill the new journal" style="whiteSpace=wrap;html=1;rounded=1;" vertex="1" parent="1">
          <mxGeometry x="-60" y="1040" width="140" height="70" as="geometry" />
        </mxCell>
        <mxCell id="euGW15pd2-e-l5eLdQlk-13" value="V" style="text;html=1;align=center;verticalAlign=middle;resizable=0;points=[];autosize=1;strokeColor=none;fillColor=none;" vertex="1" parent="1">
          <mxGeometry x="315" y="918" width="30" height="30" as="geometry" />
        </mxCell>
        <mxCell id="euGW15pd2-e-l5eLdQlk-14" value="F" style="text;html=1;align=center;verticalAlign=middle;resizable=0;points=[];autosize=1;strokeColor=none;fillColor=none;" vertex="1" parent="1">
          <mxGeometry x="130" y="918" width="30" height="30" as="geometry" />
        </mxCell>
        <mxCell id="euGW15pd2-e-l5eLdQlk-18" value="" style="edgeStyle=orthogonalEdgeStyle;rounded=0;orthogonalLoop=1;jettySize=auto;html=1;entryX=0.5;entryY=0;entryDx=0;entryDy=0;" edge="1" parent="1" source="euGW15pd2-e-l5eLdQlk-15" target="euGW15pd2-e-l5eLdQlk-19">
          <mxGeometry relative="1" as="geometry">
            <mxPoint x="405" y="1250" as="targetPoint" />
          </mxGeometry>
        </mxCell>
        <mxCell id="euGW15pd2-e-l5eLdQlk-15" value="Start ZipCreator" style="whiteSpace=wrap;html=1;rounded=1;" vertex="1" parent="1">
          <mxGeometry x="345" y="1150" width="120" height="60" as="geometry" />
        </mxCell>
        <mxCell id="euGW15pd2-e-l5eLdQlk-20" style="edgeStyle=orthogonalEdgeStyle;rounded=0;orthogonalLoop=1;jettySize=auto;html=1;entryX=0.5;entryY=0;entryDx=0;entryDy=0;" edge="1" parent="1" source="euGW15pd2-e-l5eLdQlk-19" target="euGW15pd2-e-l5eLdQlk-23">
          <mxGeometry relative="1" as="geometry">
            <mxPoint x="555" y="1400" as="targetPoint" />
            <Array as="points">
              <mxPoint x="555" y="1310" />
            </Array>
          </mxGeometry>
        </mxCell>
        <mxCell id="euGW15pd2-e-l5eLdQlk-21" style="edgeStyle=orthogonalEdgeStyle;rounded=0;orthogonalLoop=1;jettySize=auto;html=1;entryX=0.5;entryY=0;entryDx=0;entryDy=0;" edge="1" parent="1" source="euGW15pd2-e-l5eLdQlk-19" target="euGW15pd2-e-l5eLdQlk-22">
          <mxGeometry relative="1" as="geometry">
            <mxPoint x="255" y="1400" as="targetPoint" />
            <Array as="points">
              <mxPoint x="265" y="1310" />
            </Array>
          </mxGeometry>
        </mxCell>
        <mxCell id="euGW15pd2-e-l5eLdQlk-19" value="There was errors?" style="rhombus;whiteSpace=wrap;html=1;" vertex="1" parent="1">
          <mxGeometry x="311.5" y="1260" width="187" height="100" as="geometry" />
        </mxCell>
        <mxCell id="euGW15pd2-e-l5eLdQlk-26" style="edgeStyle=orthogonalEdgeStyle;rounded=0;orthogonalLoop=1;jettySize=auto;html=1;" edge="1" parent="1" source="euGW15pd2-e-l5eLdQlk-22">
          <mxGeometry relative="1" as="geometry">
            <mxPoint x="395" y="1250" as="targetPoint" />
            <Array as="points">
              <mxPoint x="95" y="1445" />
              <mxPoint x="95" y="1250" />
              <mxPoint x="325" y="1250" />
            </Array>
          </mxGeometry>
        </mxCell>
        <mxCell id="euGW15pd2-e-l5eLdQlk-22" value="Notify backup controller and let user decide if they want to continue" style="whiteSpace=wrap;html=1;rounded=1;" vertex="1" parent="1">
          <mxGeometry x="195" y="1410" width="140" height="70" as="geometry" />
        </mxCell>
        <mxCell id="euGW15pd2-e-l5eLdQlk-23" value="Write new journal to disk" style="whiteSpace=wrap;html=1;rounded=1;" vertex="1" parent="1">
          <mxGeometry x="485" y="1410" width="140" height="70" as="geometry" />
        </mxCell>
        <mxCell id="euGW15pd2-e-l5eLdQlk-24" value="F" style="text;html=1;align=center;verticalAlign=middle;resizable=0;points=[];autosize=1;strokeColor=none;fillColor=none;" vertex="1" parent="1">
          <mxGeometry x="490" y="1269" width="30" height="30" as="geometry" />
        </mxCell>
        <mxCell id="euGW15pd2-e-l5eLdQlk-25" value="V" style="text;html=1;align=center;verticalAlign=middle;resizable=0;points=[];autosize=1;strokeColor=none;fillColor=none;" vertex="1" parent="1">
          <mxGeometry x="281.5" y="1269" width="30" height="30" as="geometry" />
        </mxCell>
        <mxCell id="euGW15pd2-e-l5eLdQlk-30" value="" style="edgeStyle=orthogonalEdgeStyle;rounded=0;orthogonalLoop=1;jettySize=auto;html=1;" edge="1" parent="1" source="euGW15pd2-e-l5eLdQlk-27" target="euGW15pd2-e-l5eLdQlk-29">
          <mxGeometry relative="1" as="geometry" />
        </mxCell>
        <mxCell id="euGW15pd2-e-l5eLdQlk-27" value="Fill new journal with loaded journal" style="whiteSpace=wrap;html=1;rounded=1;" vertex="1" parent="1">
          <mxGeometry x="710" y="920" width="120" height="60" as="geometry" />
        </mxCell>
        <mxCell id="euGW15pd2-e-l5eLdQlk-46" style="edgeStyle=orthogonalEdgeStyle;rounded=0;orthogonalLoop=1;jettySize=auto;html=1;entryX=0.5;entryY=0;entryDx=0;entryDy=0;" edge="1" parent="1" source="euGW15pd2-e-l5eLdQlk-29" target="euGW15pd2-e-l5eLdQlk-33">
          <mxGeometry relative="1" as="geometry" />
        </mxCell>
        <mxCell id="euGW15pd2-e-l5eLdQlk-47" style="edgeStyle=orthogonalEdgeStyle;rounded=0;orthogonalLoop=1;jettySize=auto;html=1;entryX=0.5;entryY=0;entryDx=0;entryDy=0;" edge="1" parent="1" source="euGW15pd2-e-l5eLdQlk-29" target="euGW15pd2-e-l5eLdQlk-15">
          <mxGeometry relative="1" as="geometry" />
        </mxCell>
        <mxCell id="euGW15pd2-e-l5eLdQlk-29" value="Scan targets" style="whiteSpace=wrap;html=1;rounded=1;" vertex="1" parent="1">
          <mxGeometry x="710" y="1053" width="120" height="60" as="geometry" />
        </mxCell>
        <mxCell id="euGW15pd2-e-l5eLdQlk-35" style="edgeStyle=orthogonalEdgeStyle;rounded=0;orthogonalLoop=1;jettySize=auto;html=1;entryX=0;entryY=0.5;entryDx=0;entryDy=0;" edge="1" parent="1" source="euGW15pd2-e-l5eLdQlk-33" target="euGW15pd2-e-l5eLdQlk-36">
          <mxGeometry relative="1" as="geometry">
            <mxPoint x="1129.5" y="1200" as="targetPoint" />
          </mxGeometry>
        </mxCell>
        <mxCell id="euGW15pd2-e-l5eLdQlk-37" style="edgeStyle=orthogonalEdgeStyle;rounded=0;orthogonalLoop=1;jettySize=auto;html=1;entryX=0.5;entryY=0;entryDx=0;entryDy=0;" edge="1" parent="1" source="euGW15pd2-e-l5eLdQlk-33" target="euGW15pd2-e-l5eLdQlk-38">
          <mxGeometry relative="1" as="geometry">
            <mxPoint x="993.5" y="1290" as="targetPoint" />
          </mxGeometry>
        </mxCell>
        <mxCell id="euGW15pd2-e-l5eLdQlk-33" value="New file / folder not in old journal" style="rhombus;whiteSpace=wrap;html=1;" vertex="1" parent="1">
          <mxGeometry x="900" y="1150" width="187" height="160" as="geometry" />
        </mxCell>
        <mxCell id="euGW15pd2-e-l5eLdQlk-36" value="Add to difference journal&lt;div&gt;Edit new journal&lt;/div&gt;" style="whiteSpace=wrap;html=1;rounded=1;" vertex="1" parent="1">
          <mxGeometry x="1170" y="1190" width="170.5" height="80" as="geometry" />
        </mxCell>
        <mxCell id="euGW15pd2-e-l5eLdQlk-39" style="edgeStyle=orthogonalEdgeStyle;rounded=0;orthogonalLoop=1;jettySize=auto;html=1;entryX=0.5;entryY=1;entryDx=0;entryDy=0;" edge="1" parent="1" source="euGW15pd2-e-l5eLdQlk-38" target="euGW15pd2-e-l5eLdQlk-36">
          <mxGeometry relative="1" as="geometry" />
        </mxCell>
        <mxCell id="euGW15pd2-e-l5eLdQlk-45" style="edgeStyle=orthogonalEdgeStyle;rounded=0;orthogonalLoop=1;jettySize=auto;html=1;" edge="1" parent="1">
          <mxGeometry relative="1" as="geometry">
            <mxPoint x="980" y="1130" as="targetPoint" />
            <mxPoint x="897" y="1435" as="sourcePoint" />
            <Array as="points">
              <mxPoint x="850" y="1435" />
              <mxPoint x="850" y="1130" />
            </Array>
          </mxGeometry>
        </mxCell>
        <mxCell id="euGW15pd2-e-l5eLdQlk-38" value="File / Folder in journal but with new modified date&amp;nbsp;" style="rhombus;whiteSpace=wrap;html=1;" vertex="1" parent="1">
          <mxGeometry x="900" y="1350" width="187" height="170" as="geometry" />
        </mxCell>
        <mxCell id="euGW15pd2-e-l5eLdQlk-41" value="T" style="text;html=1;align=center;verticalAlign=middle;resizable=0;points=[];autosize=1;strokeColor=none;fillColor=none;" vertex="1" parent="1">
          <mxGeometry x="1074.5" y="1398" width="30" height="30" as="geometry" />
        </mxCell>
        <mxCell id="euGW15pd2-e-l5eLdQlk-42" value="T" style="text;html=1;align=center;verticalAlign=middle;resizable=0;points=[];autosize=1;strokeColor=none;fillColor=none;" vertex="1" parent="1">
          <mxGeometry x="1074.5" y="1198" width="30" height="30" as="geometry" />
        </mxCell>
        <mxCell id="euGW15pd2-e-l5eLdQlk-48" value="End of scan, new journal is ready" style="text;html=1;align=center;verticalAlign=middle;resizable=0;points=[];autosize=1;strokeColor=none;fillColor=none;" vertex="1" parent="1">
          <mxGeometry x="90" y="1050" width="200" height="30" as="geometry" />
        </mxCell>
        <mxCell id="euGW15pd2-e-l5eLdQlk-49" value="End of scan,&amp;nbsp;&lt;div&gt;difference journal is ready&amp;nbsp;&lt;/div&gt;&lt;div&gt;to be used for zip creation,&lt;/div&gt;&lt;div&gt;new journal is ready for disk persistance&lt;/div&gt;" style="text;html=1;align=center;verticalAlign=middle;resizable=0;points=[];autosize=1;strokeColor=none;fillColor=none;" vertex="1" parent="1">
          <mxGeometry x="460" y="1010" width="240" height="70" as="geometry" />
        </mxCell>
      </root>
    </mxGraphModel>
  </diagram>
</mxfile>
